<?xml version="1.0" encoding="utf-8"?>
<!-- Generator: Adobe Illustrator 17.0.0, SVG Export Plug-In . SVG Version: 6.00 Build 0)  -->
<!DOCTYPE svg PUBLIC "-//W3C//DTD SVG 1.1//EN" "http://www.w3.org/Graphics/SVG/1.1/DTD/svg11.dtd">
<svg version="1.1" id="Layer_1" xmlns="http://www.w3.org/2000/svg" xmlns:xlink="http://www.w3.org/1999/xlink" x="0px" y="0px"
	 width="200px" height="200px" viewBox="0 0 200 200" enable-background="new 0 0 200 200" xml:space="preserve">
<g>
	<polyline fill="none" stroke="#010101" stroke-width="2" stroke-miterlimit="10" points="159.2245483,94.1599503 
		140.0388184,113.2242355 119.1531296,92.3385239 139.1888428,92.3385239 116.967392,126.5813751 100.3316956,60.1599503 
		83.5745316,126.5813751 61.4745522,92.3385239 81.5102692,92.3385239 60.5031013,113.2242355 41.438839,94.1599503 	"/>
	
		<line fill="none" stroke="#010101" stroke-width="2" stroke-miterlimit="10" x1="83.5745316" y1="139.9385223" x2="116.967392" y2="139.9385223"/>
	<polygon fill="#010101" points="89.767395,131.8028107 110.7745285,131.8028107 100.3316956,90.5170898 	"/>
	
		<circle fill="none" stroke="#010101" stroke-width="1.5" stroke-miterlimit="10" cx="100.3316956" cy="99.7456741" r="67.5142899"/>
	
		<circle fill="none" stroke="#010101" stroke-width="1.5" stroke-miterlimit="10" cx="100.3316956" cy="99.7456741" r="84.5142899"/>
	<g>
		<path fill="#010101" d="M25.8959599,72.9099503l5.3428497,4.3714371c0,0,0.1214352,0,0.1214352,0.1214371l0,0c0,0,0,0,0,0.1214294
			l0,0v0.1214371l0,0v0.1214371l0,0l0,0c0,0,0,0,0,0.1214371l0,0v0.1214371v0.1214371l0,0c0,0,0,0,0,0.1214371l0,0
			l-0.1214352,0.1214294l0,0c0,0,0,0-0.1214352,0l0,0c0,0,0,0-0.1214371,0l0,0h-0.1214352l-3.6428585,0.4857101l2.9142799,2.3071365
			c0,0,0.1214352,0,0.1214352,0.1214371l0,0c0,0,0,0,0,0.1214371l0,0c0,0,0,0,0,0.1214294l0,0v0.1214371l0,0l0,0v0.1214371l0,0
			v0.1214371v0.1214371l0,0c0,0,0,0,0,0.1214371l0,0l-0.1214352,0.1214371l0,0c0,0,0,0-0.1214371,0l0,0c0,0,0,0-0.1214352,0l0,0
			h-0.1214371l-6.9214439,0.8499908c-0.3642693,0-0.6071415-0.2428513-0.6071415-0.4857025
			c0-0.3642883,0.2428722-0.6071472,0.4857063-0.6071472L28.203022,81.41008l-2.7928429-2.3071365
			c-0.2428722-0.1214371-0.2428722-0.3642883-0.2428722-0.6071396c0.1214352-0.2428589,0.2428722-0.364296,0.4857063-0.4857101
			l3.6428585-0.4857101l-4.2500019-3.4000015c-0.2428703-0.2428513-0.2428703-0.6071396-0.1214352-0.8499985
			C25.2888165,72.7885132,25.6531239,72.667099,25.8959599,72.9099503z"/>
		<path fill="#010101" d="M34.6388321,68.2956619l-5.7071571-3.0357132
			c-0.2428722-0.1214371-0.3642712-0.4857101-0.2428722-0.8499985c0.1214352-0.2428513,0.4857063-0.3642883,0.8500137-0.2428513
			l2.3071365,1.2142792l1.335722-2.5500031l-2.3071365-1.2142868c-0.2428722-0.1214371-0.3642712-0.4857063-0.2428722-0.8499947
			c0.1214371-0.2428551,0.4857082-0.3642921,0.8500156-0.2428551l5.7071571,3.0357132
			c0.2428703,0.1214371,0.3642693,0.4857101,0.2428703,0.8499985c-0.1214333,0.2428513-0.4857063,0.3642883-0.8500137,0.2428513
			l-2.3071365-1.214283l-1.3357201,2.5500069l2.3071365,1.2142868c0.2428703,0.1214371,0.3642693,0.4857025,0.2428703,0.8499908
			C35.3674088,68.2956619,35.0031013,68.417099,34.6388321,68.2956619z"/>
		<path fill="#010101" d="M42.1673813,54.0885201l-1.5785561,2.0642815l0.8500137,1.3357239
			c0.1214371,0.2428513,0.1214371,0.4857063,0,0.7285767c0,0.1214371-0.1214371,0.1214371-0.1214371,0.1214371
			c-0.2428703,0.1214371-0.6071396,0.1214371-0.8500137-0.2428551l-3.6428566-5.8285751
			c-0.1214371-0.2428513-0.1214371-0.4857063,0-0.7285767c0.1214371-0.2428551,0.3642693-0.2428551,0.6071434-0.2428551
			l6.5571365,1.9428673c0.3642693,0.1214333,0.4857063,0.4857063,0.3642693,0.7285767c0,0,0,0.1214371-0.1214371,0.2428551
			c-0.1214333,0.2428513-0.3642693,0.2428513-0.6071434,0.2428513L42.1673813,54.0885201z M40.9530945,53.7242317
			l-2.4285698-0.7285805l1.3357201,2.0642815L40.9530945,53.7242317z"/>
		<path fill="#010101" d="M47.0245247,41.9456635l-1.2142868,1.2142868l4.1285629,4.1285706
			c0.2428741,0.2428551,0.2428741,0.6071434,0,0.8499985c-0.2428703,0.2428513-0.6071396,0.2428513-0.8500137,0
			l-4.1285629-4.1285744l-1.2142868,1.2142868c-0.2428703,0.2428513-0.6071434,0.2428513-0.8500137,0
			c-0.2428741-0.2428551-0.2428741-0.6071434,0-0.8499985l3.3999863-3.2785645c0.2428703-0.2428551,0.6071396-0.2428551,0.8500137,0
			C47.267395,41.3385201,47.267395,41.7028084,47.0245247,41.9456635z"/>
		<path fill="#010101" d="M56.8602448,41.3385201l-3.7642937-5.2214317
			c-0.2428703-0.2428551-0.1214333-0.6071434,0.1214371-0.8499947l0,0l0,0l2.9142799-2.0642853
			c0.2428703-0.1214256,0.6071434-0.1214256,0.8500137,0.1214294c0.2428703,0.2428513,0.1214371,0.6071434-0.1214371,0.8499947
			l-2.4285698,1.7000008l1.0928497,1.5785751l2.0643005-1.4571381c0.2428703-0.2428513,0.6071434-0.1214256,0.8500137,0.1214256
			c0.2428741,0.2428551,0.1214371,0.6071434-0.1214371,0.8499985l-2.0643005,1.4571381l1.2142868,1.7000008l2.4285736-1.7000008
			c0.2428703-0.1214256,0.6071396-0.1214256,0.8500137,0.1214256c0.2428703,0.2428551,0.1214371,0.6071434-0.1214371,0.8499985
			l-2.9142761,2.0642815l0,0l0,0C57.4673882,41.7028084,56.9816818,41.7028084,56.8602448,41.3385201z"/>
		<path fill="#010101" d="M69.0031052,34.6599503L69.0031052,34.6599503
			C68.8816681,34.5385208,68.8816681,34.5385208,69.0031052,34.6599503c-0.1214371,0-0.1214371-0.1214294-0.2428741-0.1214294l0,0
			c0,0,0,0-0.1214371,0l-5.1000137-4.6142883c-0.2428703-0.2428532-0.2428703-0.6071434,0-0.8499966
			s0.6071396-0.2428532,0.8500137,0l4.1285629,3.6428585l-0.2428665-5.4642868c0-0.3642883,0.2428665-0.6071434,0.6071396-0.6071434
			s0.6071396,0.2428551,0.6071396,0.6071434l0.2428741,6.9214249v0.1214256l0,0c0,0,0,0,0,0.1214294l0,0c0,0,0,0,0,0.1214256l0,0
			v0.1214256l0,0c0,0,0,0-0.1214371,0l0,0h-0.1214371h-0.1214294l0,0H69.245903l0,0l0,0
			C69.1245422,34.6599503,69.1245422,34.6599503,69.0031052,34.6599503L69.0031052,34.6599503z"/>
		<path fill="#010101" d="M78.474556,30.2885227l-1.6999969-6.1928558c-0.1214371-0.3642902,0.1214371-0.6071434,0.3642731-0.728569
			l0,0l0,0l3.3999863-0.9714336c0.3642731-0.1214256,0.6071396,0.1214275,0.7285767,0.3642902
			c0.1214371,0.3642902-0.1214371,0.6071434-0.3642731,0.728569l-2.7928391,0.8499966l0.4857101,1.9428558l2.428566-0.728569
			c0.3642731-0.1214275,0.6071472,0.1214256,0.7285843,0.3642883c0.1214294,0.3642902-0.1214371,0.6071434-0.3642731,0.728569
			l-2.4285736,0.7285709l0.4857101,1.9428539l2.7928391-0.8499947c0.3642731-0.1214275,0.6071472,0.1214256,0.7285767,0.4857159
			c0.1214371,0.3642883-0.1214294,0.6071415-0.3642654,0.728569l-3.3999863,0.9714317l0,0l0,0
			C78.8388214,30.7742386,78.5959549,30.6528015,78.474556,30.2885227z"/>
		<path fill="#010101" d="M94.8674088,26.8885193c0.1214371,0.2428532,0,0.6071415-0.2428665,0.8499947c0,0-0.1214371,0-0.2428741,0
			l0,0c-0.1214371,0-0.2428741,0-0.4857101-0.1214256c-0.1214371-0.1214275-0.2428665-0.2428532-0.3642654-0.3642902
			c-0.2428741-0.2428532-0.3642731-0.728569-0.3642731-1.3357124c0-0.2428532-0.1214371-0.3642883-0.1214371-0.4857159
			c-0.1214371-0.1214256-0.2428741-0.2428532-0.3642731-0.2428532c-0.2428665-0.1214275-0.4857025-0.2428532-0.6071396-0.2428532
			l-1.3357239,0.1214256l0.2428741,2.3071461c0,0.3642883-0.2428741,0.6071415-0.4857101,0.6071415
			c-0.3642654,0-0.6071396-0.2428532-0.6071396-0.4857159l-0.7285767-6.4357185
			c0-0.3642883,0.2428665-0.6071415,0.4857025-0.6071415l0,0l1.9428635-0.2428532
			c1.3357239-0.1214275,2.4285736,0.728569,2.5500107,2.0642815c0.1214371,0.728569-0.1214371,1.3357124-0.6071472,1.8214283
			c0.1214371,0.1214275,0.2428741,0.2428532,0.3642731,0.3642902c0.2428741,0.2428532,0.4857101,0.728569,0.4857101,1.0928593
			c0,0.3642883,0.1214371,0.4857159,0.1214371,0.6071415C94.6245422,26.5242386,94.8674088,26.6456642,94.8674088,26.8885193z
			 M92.9245453,22.6385193c-0.1214371-0.6071434-0.6071396-1.0928593-1.2142868-0.9714336l-1.3357162,0.1214275l0.2428665,2.1857185
			l1.3357239-0.1214275C92.5602417,23.8528042,92.9245453,23.2456608,92.9245453,22.6385193z"/>
		<path fill="#010101" d="M101.7888184,27.0099449l0.3642731-6.4357185c0-0.3642883,0.2428665-0.6071415,0.6071396-0.6071415l0,0
			l0,0l3.5214233,0.1214256c0.3642731,0,0.6071396,0.2428532,0.6071396,0.6071434
			c0,0.3642883-0.3642654,0.6071434-0.6071396,0.6071434l-2.9142761-0.1214275l-0.1214371,1.9428558l2.5500031,0.1214256
			c0.3642731,0,0.6071472,0.3642902,0.6071472,0.6071434c0,0.3642902-0.2428741,0.6071434-0.6071472,0.6071434l-2.5500031-0.1214275
			l-0.1214371,2.0642834l2.9142761,0.1214256c0.3642731,0,0.6071472,0.2428532,0.6071472,0.6071434
			c0,0.3642883-0.3642731,0.6071434-0.6071472,0.6071434l-3.5214233-0.1214275l0,0l0,0
			C101.9102554,27.6170883,101.6673813,27.3742352,101.7888184,27.0099449z"/>
		<path fill="#010101" d="M115.5102692,29.0742359L115.5102692,29.0742359
			C115.3888321,29.0742359,115.3888321,29.0742359,115.5102692,29.0742359
			c-0.1214371-0.1214256-0.1214371-0.1214256-0.1214371-0.1214256l0,0v-0.1214275l-1.2142868-6.7999973
			c-0.1214371-0.3642902,0.1214371-0.6071434,0.4857101-0.7285709c0.3642731-0.1214256,0.6071396,0.1214275,0.7285767,0.4857178
			l0.9714127,5.3428574l3.1571503-4.4928532c0.2428741-0.2428532,0.6071472-0.3642883,0.8500137-0.1214256
			c0.2428741,0.2428532,0.3642731,0.6071415,0.1214371,0.8499966l-4.0071259,5.7071381c0,0,0,0,0,0.1214275l0,0c0,0,0,0-0.1214371,0
			s0,0,0,0s0,0-0.1214371,0l0,0h-0.1214371l0,0c0,0,0,0-0.1214294,0l0,0h-0.1214371h-0.1214371l0,0
			C115.6316681,29.1956635,115.6316681,29.1956635,115.5102692,29.0742359
			C115.6316681,29.1956635,115.6316681,29.1956635,115.5102692,29.0742359
			C115.6316681,29.1956635,115.6316681,29.1956635,115.5102692,29.0742359
			C115.5102692,29.1956635,115.5102692,29.1956635,115.5102692,29.0742359L115.5102692,29.0742359z"/>
		<path fill="#010101" d="M125.588829,31.5028076l2.428566-5.9500008c0.1214447-0.3642902,0.4857025-0.4857178,0.7285767-0.3642902
			l0,0l0,0l3.278595,1.3357124c0.2428741,0.1214275,0.4857025,0.4857159,0.3642731,0.728569
			c-0.1214447,0.2428532-0.4857178,0.4857159-0.7285919,0.3642902l-2.7928314-1.0928593l-0.7285767,1.8214283l2.3071289,0.9714317
			c0.3642731,0.1214275,0.4857025,0.4857178,0.3642731,0.7285709c-0.1214447,0.3642883-0.4857025,0.4857159-0.7285767,0.3642883
			l-2.3071365-0.9714317l-0.7285843,1.8214283l2.7928467,1.0928612c0.2428741,0.1214256,0.4857025,0.485714,0.3642731,0.8499947
			c-0.1214447,0.3642883-0.4857178,0.4857178-0.7285767,0.3642883l-3.278595-1.3357124l0,0l0,0
			C125.588829,32.2313766,125.467392,31.8670883,125.588829,31.5028076z"/>
		<path fill="#010101" d="M140.6459656,38.7885208c-0.1214447,0.3642921-0.3642731,0.4857178-0.7285767,0.4857178
			c0,0-0.1214447,0-0.2428741-0.1214256l0,0c-0.1214447,0-0.2428741-0.1214294-0.2428741-0.3642921
			c-0.1214447-0.1214256-0.1214447-0.3642883-0.1214447-0.485714c0-0.3642883,0.1214447-0.728569,0.4857178-1.2142868
			c0.1214294-0.2428513,0.1214294-0.3642883,0.1214294-0.485714c0-0.1214294,0-0.2428551-0.1214294-0.4857178
			c-0.1214447-0.2428551-0.3642731-0.4857178-0.3642731-0.4857178l-1.0928497-0.728569l-1.2142944,2.0642815
			c-0.1214294,0.2428551-0.607132,0.3642921-0.8500061,0.2428551c-0.2428741-0.1214256-0.3642731-0.6071434-0.2428741-0.8499947
			l3.3999786-5.4642868c0.1214447-0.2428551,0.4857178-0.3642902,0.8500214-0.2428551l0,0l1.6999969,0.9714336
			c1.0928497,0.7285709,1.4571533,2.0642834,0.7285767,3.2785664c-0.3642731,0.6071434-0.9714203,0.9714317-1.6999969,1.0928612
			c0.1214447,0.1214256,0.1214447,0.3642883,0.1214447,0.485714c0,0.3642921-0.1214447,0.8499985-0.3642731,1.2142868
			c-0.1214447,0.2428551-0.2428741,0.4857178-0.2428741,0.6071434
			C140.6459656,38.4242325,140.767395,38.6670952,140.6459656,38.7885208z M141.7388153,34.2956581
			c0.3642731-0.485714,0.1214294-1.214283-0.3642731-1.5785751l-1.0928497-0.728569l-1.2142944,1.9428558l1.0928497,0.728569
			C140.6459656,35.0242386,141.3745422,34.7813759,141.7388153,34.2956581z"/>
		<path fill="#010101" d="M147.0816956,42.7956581c0.3642731,0.2428551,0.3642731,0.8499985,0.1214447,1.0928612
			c-0.2428741,0.3642883-0.8500214,0.3642883-1.0928497,0.1214256c-0.3642731-0.2428513-0.3642731-0.8499947-0.1214447-1.0928574
			C146.2316895,42.5528069,146.717392,42.5528069,147.0816956,42.7956581z"/>
		<path fill="#010101" d="M151.6959686,48.2599449l4.6142731-4.4928513c0.2428741-0.2428551,0.6071472-0.2428551,0.8500061,0
			c0.2428741,0.2428513,0.2428741,0.6071396,0,0.8499947l-4.25,4.0071449l2.0643005,2.1857185
			c0.2428741,0.2428551,0.2428741,0.6071434,0,0.8499985c-0.2428589,0.2428513-0.607132,0.2428513-0.8500061,0l-2.4285736-2.5499992
			l0,0l0,0C151.4530945,48.8670883,151.4530945,48.5028076,151.6959686,48.2599449z"/>
		<path fill="#010101" d="M162.1388397,59.1885185L160.6816711,57.0028l-1.4571533,0.3642883
			c-0.2428741,0-0.4857025,0-0.6071472-0.2428551c0-0.1214333-0.1214294-0.1214333-0.1214294-0.2428513
			c-0.1214447-0.3642883,0.1214294-0.6071434,0.4857025-0.7285805l6.6785736-1.6999931c0.2428741,0,0.4857025,0,0.6071472,0.2428551
			c0.1214294,0.2428551,0.1214294,0.4857063,0,0.7285805l-3.8857269,5.5857201
			c-0.2428741,0.2428551-0.6071472,0.3642883-0.8500214,0.1214371l-0.1214294-0.1214371
			c-0.1214447-0.2428551-0.1214447-0.4857063,0-0.7285805L162.1388397,59.1885185z M162.8674164,58.217083l1.4571533-2.0642815
			l-2.4285736,0.6071434L162.8674164,58.217083z"/>
		<path fill="#010101" d="M165.7816925,68.052803c-0.2428741,0.1214371-0.6071472,0-0.8500214-0.2428513
			c-0.1214294-0.3642883,0-0.6071396,0.2428741-0.8499985l5.8285522-2.6714249l0,0
			c0.1214447-0.1214294,0.3642731-0.1214294,0.6071472,0c0.2428741,0.1214371,0.3642731,0.4857101,0.2428741,0.8499985
			l-3.0357208,5.2214355l4.1285706-1.821434c0.2428741-0.1214294,0.6071472,0,0.7285767,0.2428589
			c0.1214447,0.2428513,0,0.6071396-0.2428741,0.8499908l-5.8285522,2.6714249
			c-0.2428741,0.1214371-0.6071472,0-0.8500214-0.2428513c-0.1214294-0.1214371,0-0.3642883,0-0.4857025c0,0,0,0,0-0.1214371
			l3.0357208-5.2214355L165.7816925,68.052803z"/>
		<path fill="#010101" d="M170.0316925,78.9813766l6.1928558-1.5785751
			c0.3642731-0.1214371,0.6071472,0.1214371,0.7285919,0.4857101l0.3642578,1.2142868
			c0.4857178,2.0642776-0.7285767,4.1285629-2.7928314,4.6142883c-2.0643005,0.4857025-4.1285706-0.7285843-4.6142731-2.7928619
			l-0.3642731-1.2142868C169.54599,79.345665,169.7888184,79.1028137,170.0316925,78.9813766z M171.0030975,79.9528122
			l0.1214447,0.6071396c0.3642731,1.3357239,1.8214264,2.1857224,3.1571503,1.8214264
			c1.3357239-0.3642883,2.1856995-1.8214264,1.8214264-3.1571503l-0.1214294-0.6071396L171.0030975,79.9528122z"/>
	</g>
</g>
</svg>
